<svg xmlns="http://www.w3.org/2000/svg" width="24" height="24" viewBox="0 -960 960 960"><path d="m226-559 78 33q14-28 29-54t33-52l-56-11zm142 83 114 113q42-16 90-49t90-75q70-70 109.5-155.5T806-800q-72-5-158 34.5T492-656q-42 42-75 90t-49 90m178-65q-23-23-23-56.5t23-56.5 57-23 57 23 23 56.5-23 56.5-57 23-57-23m19 321 84-84-11-56q-26 18-52 32.5T532-299zm313-653q19 121-23.5 235.5T708-419l20 99q4 20-2 39t-20 33L538-80l-84-197-171-171-197-84 167-168q14-14 33.5-20t39.5-2l99 20q104-104 218-147t235-24M157-321q35-35 85.5-35.5T328-322t34.5 85.5T327-151q-25 25-83.5 43T82-76q14-103 32-161.5t43-83.5m57 56q-10 10-20 36.5T180-175q27-4 53.5-13.5T270-208q12-12 13-29t-11-29-29-11.5-29 12.5"/></svg>