<?xml version="1.0" encoding="UTF-8"?>
<svg id="Layer_1" xmlns="http://www.w3.org/2000/svg" version="1.1" xmlns:xlink="http://www.w3.org/1999/xlink" viewBox="0 0 80.6 80">
  <!-- Generator: Adobe Illustrator 29.2.1, SVG Export Plug-In . SVG Version: 2.1.0 Build 116)  -->
  <defs>
    <style>
      .st0 {
        fill: none;
      }

      .st1 {
        fill: #1a1a1a;
      }

      .st2 {
        clip-path: url(#clippath);
      }
    </style>
    <clipPath id="clippath">
      <rect class="st0" width="158" height="80"/>
    </clipPath>
  </defs>
  <g class="st2">
    <path class="st1" d="M48,38.1l5.8-3.3-4.1.3-.6-1.1,2.4-3.4-5.8,3.3-.8-1.2,8.3-4.8.8,1.3-2.9,4.4,5.2-.4.7,1.3-8.3,4.8s-.7-1.3-.7-1.3ZM44.9,47.1l8.3,4.8.8-1.3-2.9-4.3,5.2.3.7-1.3-8.3-4.8-.7,1.3,5.8,3.3-4.1-.3-.6,1.1,2.4,3.4-5.8-3.3s-.8,1.2-.8,1.2ZM36.3,47.7v9.6h1.5s2.3-4.6,2.3-4.6l2.3,4.7h1.5v-9.6h-1.5s0,6.7,0,6.7l-1.8-3.7h-1.2l-1.8,3.7v-6.7s-1.4,0-1.4,0h0ZM31.5,40.5l-8.3,4.8.7,1.3,5.2-.4-2.9,4.4.8,1.3,8.3-4.8-.8-1.2-5.8,3.3,2.4-3.4-.6-1.1-4.1.3,5.8-3.3s-.7-1.3-.7-1.3ZM35.3,32.8l-8.3-4.8-.8,1.3,2.9,4.3-5.2-.3-.7,1.3,8.3,4.8.7-1.3-5.8-3.3,4.1.3.6-1.1-2.4-3.4,5.8,3.3s.8-1.2.8-1.2ZM43.9,32.3v-9.6h-1.5s-2.3,4.6-2.3,4.6l-2.3-4.7h-1.5v9.6h1.5s0-6.7,0-6.7l1.8,3.7h1.2l1.8-3.7v6.7s1.4,0,1.4,0ZM56.7,16.5l-4.5,8.5-1.4-.8,1.8-3.5-3.8-2-1.8,3.5-1.5-.7,4.5-8.5,1.5.7-1.8,3.5,3.8,2,1.8-3.5,1.4.8ZM64.8,25.6l-3.3,2.2-2.5-3.6,3.3-2.2-1-1.3-7.9,5.4,1,1.3,3.3-2.2,2.5,3.6-3.3,2.2.9,1.4,7.9-5.4s-.9-1.4-.9-1.4ZM68.7,38.7l-3.9.5-.5-4.3,3.9-.5-.2-1.6-9.5,1.2.2,1.6,4-.5.5,4.3-4,.5.2,1.6,9.5-1.2s-.1-1.6-.1-1.6ZM66,52.2l-3.7-1.4,1.5-4.1,3.7,1.4.5-1.5-9-3.4-.5,1.5,3.7,1.4-1.5,4.1-3.7-1.4-.6,1.5,9,3.4s.6-1.5.6-1.5ZM57.4,62.8l-2.6-3,3.2-2.9,2.6,3,1.2-1.1-6.4-7.2-1.2,1.1,2.6,3-3.2,2.9-2.6-3-1.2,1,6.3,7.2s1.2-1,1.3-1ZM44.8,68.2l-.9-3.9,4.2-1,1,3.9,1.6-.4-2.3-9.3-1.6.4,1,3.9-4.2,1-1-3.9-1.6.3,2.3,9.3,1.6-.3h0ZM31.1,67.2l1-3.9,4.2,1-1,3.9,1.6.3,2.3-9.3-1.6-.3-1,3.9-4.2-1,1-3.9-1.6-.4-2.3,9.3s1.6.4,1.6.4ZM19.5,59.9l2.6-3,3.2,2.9-2.6,3,1.2,1,6.4-7.2-1.2-1-2.6,3-3.2-2.9,2.6-3-1.2-1.1-6.4,7.2,1.2,1.1h0ZM12.6,48.1l3.7-1.4,1.5,4.1-3.7,1.4.6,1.5,9-3.4-.6-1.5-3.7,1.4-1.5-4.1,3.7-1.4-.5-1.5-9,3.4s.5,1.5.5,1.5ZM12,34.4l3.9.5-.5,4.3-3.9-.5v1.6c-.1,0,9.4,1.2,9.4,1.2v-1.6c.1,0-3.8-.5-3.8-.5l.5-4.3,4,.5.2-1.6-9.5-1.2s-.2,1.6-.3,1.6ZM17.8,22l3.3,2.2-2.5,3.6-3.3-2.3-.9,1.4,7.9,5.4.9-1.4-3.3-2.3,2.5-3.6,3.3,2.3,1-1.3-7.9-5.4-1,1.3h0ZM28.7,13.7l1.9,3.5-3.9,2-1.9-3.5-1.4.8,4.5,8.5,1.4-.8-1.9-3.5,3.9-2,1.8,3.5,1.5-.7-4.5-8.5-1.5.7h0ZM42.2,11.4v4h-4.3v-4h-1.6v9.6h1.6v-4h4.3v4h1.6s0-9.5,0-9.5h-1.6ZM56.6,3.7l-3.1,9.1-1.4-.5-2.1-7.7-2.1,6.3-1.6-.5,3.1-9.1,1.5.5,2.1,7.7,2.1-6.3s1.5.6,1.5.6ZM66.2,9.9l-4,5.2.5-8-1.2-.9-5.9,7.6,1.3,1,4-5.2-.5,8,1.2,1,5.9-7.6s-1.3-1-1.3-1ZM74.6,20.1l-5.5,3.7,3.1-7.4-.9-1.2-8,5.2.9,1.3,5.5-3.7-3.1,7.4.8,1.3,8-5.2s-.8-1.4-.9-1.4ZM79.2,32.3l-6.4,1.7,5.3-6-.4-1.5-9.3,2.4.4,1.6,6.4-1.7-5.3,6,.3,1.5,9.3-2.3-.4-1.6h0ZM79.5,45.4l-6.6-.5,7-3.9v-1.5c0,0-9.5-.8-9.5-.8v1.6c0,0,6.5.5,6.5.5l-7,3.9-.2,1.5,9.6.8s.2-1.6.2-1.6ZM75.6,58l-6.1-2.6,7.9-1.5.6-1.4-8.8-3.8-.6,1.5,6.1,2.6-7.9,1.4-.7,1.4,8.8,3.8.7-1.5h0ZM67.9,68.5l-4.9-4.4,7.9,1.2,1-1.2-7.1-6.5-1.1,1.2,4.9,4.5-7.9-1.2-1.1,1.1,7.1,6.5s1.1-1.2,1.1-1.2ZM57.1,76l-3.2-5.8,7.1,3.7,1.3-.8-4.6-8.4-1.4.8,3.2,5.8-7.1-3.7-1.4.7,4.6,8.4,1.5-.7ZM44.5,79.6l-1.1-6.5,5.5,5.8,1.5-.3-1.6-9.4-1.6.3,1.1,6.5-5.5-5.8-1.5.2,1.6,9.4s1.6-.2,1.6-.2ZM31.4,78.9l1.1-6.6,3.3,7.3,1.5.2,1.6-9.4-1.6-.2-1,6.5-3.3-7.3-1.5-.3-1.6,9.4,1.6.3h0ZM19.2,73.9l3.1-5.8.8,8,1.4.7,4.6-8.4-1.5-.7-3.1,5.8-.8-8-1.3-.8-4.6,8.4,1.4.8h0ZM9.3,65.3l4.9-4.5-1.8,7.8,1.1,1.1,7.1-6.5-1.1-1.2-4.9,4.5,1.8-7.8-1-1.2-7.1,6.5s1.1,1.2,1.1,1.2ZM2.8,54l6.1-2.7-4.3,6.8.7,1.4,8.8-3.8-.7-1.5-6.1,2.7,4.3-6.8-.6-1.4-8.8,3.8.6,1.5h0ZM.2,41.1l6.6-.6-6.2,5,.2,1.5,9.6-.8-.2-1.6-6.6.6,6.2-5v-1.5c0,0-9.6.8-9.6.8v1.6c0,0,0,0,0,0ZM2,28.1l6.4,1.6-7.5,2.7-.3,1.5,9.3,2.3.4-1.6-6.4-1.6,7.5-2.7.4-1.5-9.3-2.4s-.4,1.6-.4,1.6ZM7.9,16.4l5.6,3.6H5.5c0,.1-.8,1.4-.8,1.4l8,5.2.9-1.4-5.6-3.6h8c0-.1.9-1.4.9-1.4l-8-5.2-.9,1.3h0ZM17.3,7.3l4.1,5.2-7.6-2.5-1.2,1,5.9,7.6,1.2-1-4.1-5.2,7.6,2.5,1.2-.9-5.9-7.6-1.3,1h0ZM29.2,1.7l2.2,6.2-6.4-4.8-1.4.5,3.1,9.1,1.5-.6-2.2-6.3,6.4,4.8,1.5-.4-3.1-9.1s-1.6.5-1.6.5ZM42.2.2v6.6S37.8.2,37.8.2h-1.5v9.6h1.6c0,0,0-6.7,0-6.7l4.5,6.6h1.5c0,0,0-9.5,0-9.5h-1.6Z"/>
  </g>
</svg>